<?xml version="1.0" encoding="UTF-8"?><svg id="a" xmlns="http://www.w3.org/2000/svg" viewBox="0 0 218 218"><defs><style>.b{fill:#fff;}</style></defs><rect class="b" x=".5" y=".5" width="217" height="217" rx="103.5" ry="103.5"/><path d="M114,1c56.79,0,103,46.21,103,103v10c0,56.79-46.21,103-103,103h-10C47.21,217,1,170.79,1,114v-10C1,47.21,47.21,1,104,1h10M114,0h-10C46.56,0,0,46.56,0,104v10c0,57.44,46.56,104,104,104h10c57.44,0,104-46.56,104-104v-10C218,46.56,171.44,0,114,0h0Z"/><path d="M123.97,36.83l-9.97,12.24c-27.2-14.92-63.07-6.81-80.9,18.44l32.94.27c7.06,1.19,10.48,8.87,6.98,15.08-4.16,5.42-9.1,10.25-13.79,15.23l4.3,4.08c12.96,15.93,2.79,38.44-16.01,43.44-6.98,1.86-14.26.61-21.39,1.15,11.24,15.59,29.21,26.05,48.34,28.38,23.2,2.83,47.25-5.9,62.12-23.95,2.54-.36,5.09-.11,7.63-.22,3.17-.14,8.3-.88,11.26-.49.33.04.41-.13.35.36-19.02,31.3-55.59,46.58-91.54,38.56-25.72-5.74-49.98-24.4-59.09-49.52-.46-1.26-2.22-6.26-2.1-7.24.03-.26.14-.47.34-.64l36.94-.22c12.09-1.01,18.34-16.29,6.67-22.97-4.92-2.82-10.35-1.78-15.77-1.97-.53-.07-.91-.51-.86-1.06l21.83-23.63-41.96-1.2c6.82-22.58,24.17-41.32,46.39-49.39,22.26-8.09,46.68-6.53,67.26,5.28Z"/><path d="M76.74,105.4c4.66-5.69,9.24-11.46,13.91-17.14,10.95-13.31,21.94-26.66,33.09-39.8,1.32-1.55,3.77-4.89,5.11-6.04.92-.78,2.14-.9,3.21-.37,1.12.55,5.95,5.09,6.5,6.21s.67,2.09.5,3.29c-.37,2.7-5.53,8.47-7.42,10.8-11.71,14.47-23.93,28.54-35.6,43.04h-19.3Z"/><path d="M94.72,117.86h-17.86c-3.31-2.85-3.4-7.22-1.16-10.8h43.84c1.11.03,1.77.92,1.5,1.98l-19.73,25.84-36.68,25.66-.25-.72,30.34-41.96Z"/><path d="M135.72,104.68h-10.67c-.57,0-.3-1.12-.09-1.53.51-.96,4.93-6.42,5.84-7.35s2.2-1.6,3.47-2.05l22.91-.1c1.08.29,1.35,1.38.95,2.38l-36.54,46.41c-3.73,3.64-10.52,1.66-15.25,2.52-.73.08-1.57-.39-1.19-1.2l30.57-39.09Z"/><path d="M165.21,104.2l-10.08.13-.1-1.33c2.71-2.5,5.2-8.1,8.86-9.13l21.83-.22c1.28.53,1.63,1.57.85,2.75-1.12,1.69-3.23,3.81-4.55,5.52-10.44,13.51-20.98,26.98-31.65,40.28-2.71,2.12-5.15,1.41-8.29,1.54-1.17.05-6.13.62-6.84.14-.24-.16-.26-.45-.23-.71l30.21-38.98Z"/><path d="M193.26,104.2h-9.47c-.2,0-.87-.87-.48-1.19,2.55-2.43,5.43-8.52,8.98-9.25l21.47-.1c1.08.29,1.35,1.38.95,2.38l-35.46,45.1c-3.34,3.17-10.1,1.52-14.41,2.16-.73.08-1.57-.4-1.19-1.21l29.62-37.89Z"/><path d="M138.24,68.71c.4.13,1.57,4.5,1.93,5.28.13.29-.02.58.47.48l3.72-5.76h6.59l.33.56-6.89,9.2,3.76,9.59c.17.26-.15.78-.32.78h-6.83c-.32-.88-1.5-5.73-2.04-5.99-.39-.19-1.11,1.63-1.51,1.84l-2.73,4.1c-.26.15-5.42.14-6.08.06-1.08-.13-.96-.45-.47-1.22,1.95-3.04,5.01-5.95,7.03-9.02l-3.66-9.18.12-.74h6.59Z"/><path d="M183.19,83.34h8.27c.26,0,.36.53.35.8-.05,1.26-.81,2.94-.75,4.31l-.31.4h-16.06c-.84-1.34.18-3.71.5-5.26l9.45-9.37h-6.83c-.06,0-.47-.41-.5-.59l.86-4.93h14.99c.25,0,.37.56.37.83,0,.62-.66,4.13-.96,4.58-.27.4-.95.67-1.34,1.06-2.69,2.71-5.44,5.35-8.03,8.16Z"/><path d="M111.92,93.7l13.84-.05c1.46.45,1.39,2.1.46,3.09l-6.5,7.89-16.97.05-.58-.39c-.11-.43.06-.77.25-1.14.52-.98,4.92-6.41,5.84-7.35.98-1.01,2.33-1.68,3.66-2.1Z"/><path d="M160.89,68.71l1.92,6.71,4.91-6.71h6.35l.12.72-9.09,11.77-1.34,7.65h-5.87c-.26,0-.36-.53-.35-.8.09-2.08,1.09-4.58,1.18-6.73l-4.77-12.22.34-.39h6.59Z"/></svg>